<svg height="1092.0" width="1092.0"><g><circle cx="546.0" cy="546.0" fill="yellow" r="30"></circle><circle cx="624.0" cy="546.0" fill="red" r="30"></circle><circle cx="702.0" cy="546.0" fill="blue" r="30"></circle><circle cx="780.0" cy="546.0" fill="brown" r="30"></circle><circle cx="858.0" cy="546.0" fill="green" r="30"></circle><circle cx="936.0" cy="546.0" fill="purple" r="30"></circle><circle cx="1014.0" cy="546.0" fill="gray" r="30"></circle><circle cx="672.6322045449812" cy="606.9828556325064" fill="blue" r="30"></circle><circle cx="721.2644090899624" cy="667.9657112650127" fill="brown" r="30"></circle><circle cx="750.6322045449813" cy="606.9828556325064" fill="brown" r="30"></circle><circle cx="769.8966136349436" cy="728.9485668975191" fill="green" r="30"></circle><circle cx="799.2644090899623" cy="667.9657112650127" fill="green" r="30"></circle><circle cx="828.6322045449812" cy="606.9828556325064" fill="green" r="30"></circle><circle cx="818.5288181799249" cy="789.9314225300254" fill="purple" r="30"></circle><circle cx="847.8966136349436" cy="728.948566897519" fill="purple" r="30"></circle><circle cx="877.2644090899624" cy="667.9657112650127" fill="purple" r="30"></circle><circle cx="906.6322045449813" cy="606.9828556325064" fill="purple" r="30"></circle><circle cx="867.1610227249059" cy="850.9142781625317" fill="gray" r="30"></circle><circle cx="896.5288181799249" cy="789.9314225300254" fill="gray" r="30"></circle><circle cx="925.8966136349436" cy="728.948566897519" fill="gray" r="30"></circle><circle cx="955.2644090899626" cy="667.9657112650127" fill="gray" r="30"></circle><circle cx="984.6322045449812" cy="606.9828556325064" fill="gray" r="30"></circle><circle cx="546.0" cy="546.0" fill="yellow" r="30"></circle><circle cx="594.6322045449812" cy="606.9828556325064" fill="red" r="30"></circle><circle cx="643.2644090899623" cy="667.9657112650127" fill="blue" r="30"></circle><circle cx="691.8966136349436" cy="728.948566897519" fill="brown" r="30"></circle><circle cx="740.5288181799248" cy="789.9314225300254" fill="green" r="30"></circle><circle cx="789.1610227249059" cy="850.9142781625317" fill="purple" r="30"></circle><circle cx="837.7932272698872" cy="911.897133795038" fill="gray" r="30"></circle><circle cx="577.2755716963886" cy="683.0272327826885" fill="blue" r="30"></circle><circle cx="559.9189388477962" cy="759.0716099328708" fill="brown" r="30"></circle><circle cx="625.9077762413699" cy="744.0100884151949" fill="brown" r="30"></circle><circle cx="542.5623059992037" cy="835.115987083053" fill="green" r="30"></circle><circle cx="608.5511433927774" cy="820.0544655653772" fill="green" r="30"></circle><circle cx="674.5399807863511" cy="804.9929440477013" fill="green" r="30"></circle><circle cx="525.2056731506111" cy="911.1603642332354" fill="purple" r="30"></circle><circle cx="591.1945105441848" cy="896.0988427155594" fill="purple" r="30"></circle><circle cx="657.1833479377585" cy="881.0373211978836" fill="purple" r="30"></circle><circle cx="723.1721853313323" cy="865.9757996802076" fill="purple" r="30"></circle><circle cx="507.8490403020186" cy="987.2047413834175" fill="gray" r="30"></circle><circle cx="573.8378776955924" cy="972.1432198657417" fill="gray" r="30"></circle><circle cx="639.8267150891661" cy="957.0816983480657" fill="gray" r="30"></circle><circle cx="705.8155524827398" cy="942.0201768303899" fill="gray" r="30"></circle><circle cx="771.8043898763134" cy="926.958655312714" fill="gray" r="30"></circle><circle cx="546.0" cy="546.0" fill="yellow" r="30"></circle><circle cx="528.6433671514075" cy="622.0443771501823" fill="red" r="30"></circle><circle cx="511.286734302815" cy="698.0887543003645" fill="blue" r="30"></circle><circle cx="493.93010145422244" cy="774.1331314505467" fill="brown" r="30"></circle><circle cx="476.57346860562996" cy="850.177508600729" fill="green" r="30"></circle><circle cx="459.2168357570374" cy="926.2218857509113" fill="purple" r="30"></circle><circle cx="441.8602029084449" cy="1002.2662629010935" fill="gray" r="30"></circle><circle cx="458.36779545501884" cy="655.8873088013518" fill="blue" r="30"></circle><circle cx="388.0922237586301" cy="689.7302404525213" fill="brown" r="30"></circle><circle cx="441.0111626064263" cy="731.9316859515341" fill="brown" r="30"></circle><circle cx="317.8166520622415" cy="723.5731721036909" fill="green" r="30"></circle><circle cx="370.7355909100376" cy="765.7746176027035" fill="green" r="30"></circle><circle cx="423.6545297578338" cy="807.9760631017162" fill="green" r="30"></circle><circle cx="247.54108036585274" cy="757.4161037548604" fill="purple" r="30"></circle><circle cx="300.46001921364893" cy="799.6175492538731" fill="purple" r="30"></circle><circle cx="353.3789580614451" cy="841.8189947528858" fill="purple" r="30"></circle><circle cx="406.2978969092413" cy="884.0204402518985" fill="purple" r="30"></circle><circle cx="177.26550866946405" cy="791.25903540603" fill="gray" r="30"></circle><circle cx="230.1844475172602" cy="833.4604809050427" fill="gray" r="30"></circle><circle cx="283.1033863650564" cy="875.6619264040553" fill="gray" r="30"></circle><circle cx="336.0223252128526" cy="917.8633719030681" fill="gray" r="30"></circle><circle cx="388.9412640606487" cy="960.0648174020807" fill="gray" r="30"></circle><circle cx="546.0" cy="546.0" fill="yellow" r="30"></circle><circle cx="475.7244283036113" cy="579.8429316511696" fill="red" r="30"></circle><circle cx="405.44885660722264" cy="613.685863302339" fill="blue" r="30"></circle><circle cx="335.1732849108339" cy="647.5287949535086" fill="brown" r="30"></circle><circle cx="264.8977132144453" cy="681.3717266046782" fill="green" r="30"></circle><circle cx="194.62214151805654" cy="715.2146582558477" fill="purple" r="30"></circle><circle cx="124.34656982166786" cy="749.0575899070172" fill="gray" r="30"></circle><circle cx="405.44885660722264" cy="546.0" fill="blue" r="30"></circle><circle cx="335.1732849108339" cy="512.1570683488305" fill="brown" r="30"></circle><circle cx="335.1732849108339" cy="579.8429316511697" fill="brown" r="30"></circle><circle cx="264.8977132144452" cy="478.31413669766096" fill="green" r="30"></circle><circle cx="264.8977132144453" cy="546.0" fill="green" r="30"></circle><circle cx="264.8977132144453" cy="613.6858633023392" fill="green" r="30"></circle><circle cx="194.6221415180565" cy="444.4712050464914" fill="purple" r="30"></circle><circle cx="194.62214151805648" cy="512.1570683488305" fill="purple" r="30"></circle><circle cx="194.62214151805654" cy="579.8429316511695" fill="purple" r="30"></circle><circle cx="194.62214151805654" cy="647.5287949535086" fill="purple" r="30"></circle><circle cx="124.34656982166781" cy="410.62827339532197" fill="gray" r="30"></circle><circle cx="124.34656982166783" cy="478.314136697661" fill="gray" r="30"></circle><circle cx="124.34656982166783" cy="546.0" fill="gray" r="30"></circle><circle cx="124.34656982166784" cy="613.6858633023392" fill="gray" r="30"></circle><circle cx="124.34656982166784" cy="681.3717266046782" fill="gray" r="30"></circle><circle cx="546.0" cy="546.0" fill="yellow" r="30"></circle><circle cx="475.7244283036113" cy="512.1570683488304" fill="red" r="30"></circle><circle cx="405.44885660722264" cy="478.31413669766096" fill="blue" r="30"></circle><circle cx="335.1732849108339" cy="444.47120504649143" fill="brown" r="30"></circle><circle cx="264.8977132144452" cy="410.6282733953219" fill="green" r="30"></circle><circle cx="194.62214151805648" cy="376.78534174415233" fill="purple" r="30"></circle><circle cx="124.3465698216678" cy="342.94241009298287" fill="gray" r="30"></circle><circle cx="458.3677954550188" cy="436.11269119864824" fill="blue" r="30"></circle><circle cx="441.0111626064263" cy="360.06831404846605" fill="brown" r="30"></circle><circle cx="388.0922237586301" cy="402.26975954747877" fill="brown" r="30"></circle><circle cx="423.6545297578337" cy="284.02393689828375" fill="green" r="30"></circle><circle cx="370.73559091003756" cy="326.22538239729647" fill="green" r="30"></circle><circle cx="317.81665206224136" cy="368.4268278963092" fill="green" r="30"></circle><circle cx="406.29789690924116" cy="207.97955974810145" fill="purple" r="30"></circle><circle cx="353.37895806144496" cy="250.18100524711417" fill="purple" r="30"></circle><circle cx="300.4600192136488" cy="292.3824507461269" fill="purple" r="30"></circle><circle cx="247.54108036585268" cy="334.5838962451396" fill="purple" r="30"></circle><circle cx="388.94126406064856" cy="131.93518259791927" fill="gray" r="30"></circle><circle cx="336.0223252128525" cy="174.136628096932" fill="gray" r="30"></circle><circle cx="283.1033863650563" cy="216.3380735959447" fill="gray" r="30"></circle><circle cx="230.18444751726014" cy="258.5395190949574" fill="gray" r="30"></circle><circle cx="177.26550866946397" cy="300.74096459397015" fill="gray" r="30"></circle><circle cx="546.0" cy="546.0" fill="yellow" r="30"></circle><circle cx="528.6433671514075" cy="469.95562284981776" fill="red" r="30"></circle><circle cx="511.2867343028149" cy="393.9112456996355" fill="blue" r="30"></circle><circle cx="493.9301014542224" cy="317.8668685494533" fill="brown" r="30"></circle><circle cx="476.57346860562984" cy="241.82249139927103" fill="green" r="30"></circle><circle cx="459.2168357570373" cy="165.77811424908873" fill="purple" r="30"></circle><circle cx="441.86020290844476" cy="89.73373709890654" fill="gray" r="30"></circle><circle cx="577.2755716963886" cy="408.97276721731146" fill="blue" r="30"></circle><circle cx="625.9077762413699" cy="347.98991158480516" fill="brown" r="30"></circle><circle cx="559.9189388477962" cy="332.9283900671292" fill="brown" r="30"></circle><circle cx="674.5399807863511" cy="287.00705595229874" fill="green" r="30"></circle><circle cx="608.5511433927774" cy="271.94553443462286" fill="green" r="30"></circle><circle cx="542.5623059992035" cy="256.884012916947" fill="green" r="30"></circle><circle cx="723.1721853313323" cy="226.0242003197924" fill="purple" r="30"></circle><circle cx="657.1833479377585" cy="210.96267880211647" fill="purple" r="30"></circle><circle cx="591.1945105441848" cy="195.90115728444056" fill="purple" r="30"></circle><circle cx="525.2056731506111" cy="180.83963576676464" fill="purple" r="30"></circle><circle cx="771.8043898763134" cy="165.0413446872861" fill="gray" r="30"></circle><circle cx="705.8155524827398" cy="149.9798231696102" fill="gray" r="30"></circle><circle cx="639.826715089166" cy="134.91830165193429" fill="gray" r="30"></circle><circle cx="573.8378776955923" cy="119.85678013425837" fill="gray" r="30"></circle><circle cx="507.84904030201847" cy="104.79525861658246" fill="gray" r="30"></circle><circle cx="546.0" cy="546.0" fill="yellow" r="30"></circle><circle cx="594.6322045449812" cy="485.01714436749364" fill="red" r="30"></circle><circle cx="643.2644090899624" cy="424.03428873498734" fill="blue" r="30"></circle><circle cx="691.8966136349436" cy="363.05143310248104" fill="brown" r="30"></circle><circle cx="740.5288181799249" cy="302.0685774699747" fill="green" r="30"></circle><circle cx="789.161022724906" cy="241.08572183746833" fill="purple" r="30"></circle><circle cx="837.7932272698872" cy="180.10286620496203" fill="gray" r="30"></circle><circle cx="672.6322045449813" cy="485.01714436749364" fill="blue" r="30"></circle><circle cx="750.6322045449813" cy="485.01714436749376" fill="brown" r="30"></circle><circle cx="721.2644090899624" cy="424.0342887349874" fill="brown" r="30"></circle><circle cx="828.6322045449813" cy="485.01714436749364" fill="green" r="30"></circle><circle cx="799.2644090899624" cy="424.03428873498734" fill="green" r="30"></circle><circle cx="769.8966136349436" cy="363.05143310248104" fill="green" r="30"></circle><circle cx="906.6322045449813" cy="485.0171443674937" fill="purple" r="30"></circle><circle cx="877.2644090899624" cy="424.0342887349873" fill="purple" r="30"></circle><circle cx="847.8966136349436" cy="363.051433102481" fill="purple" r="30"></circle><circle cx="818.5288181799249" cy="302.0685774699747" fill="purple" r="30"></circle><circle cx="984.6322045449812" cy="485.01714436749364" fill="gray" r="30"></circle><circle cx="955.2644090899626" cy="424.0342887349874" fill="gray" r="30"></circle><circle cx="925.8966136349436" cy="363.05143310248104" fill="gray" r="30"></circle><circle cx="896.5288181799249" cy="302.0685774699747" fill="gray" r="30"></circle><circle cx="867.1610227249059" cy="241.08572183746838" fill="gray" r="30"></circle></g></svg>